<svg xmlns="http://www.w3.org/2000/svg" xmlns:xlink="http://www.w3.org/1999/xlink" width="100%" height="100%" version="1.1" viewBox="0 0 1418 1418" xml:space="preserve" style="fill-rule:evenodd;clip-rule:evenodd;stroke-linejoin:round;stroke-miterlimit:1.41421"><g transform="matrix(1.33639,0,0,1.33639,-130.291,-429.85)"><g id="Head"><g transform="matrix(1,0,0,1,-2.75878,3.17177) matrix(0.733518,0,0,1.29705,141.348,-202.834)"><rect width="48.139" height="22.695" x="601.927" y="668.886" style="fill:#daa284"/></g><g transform="matrix(1,0,0,1,-2.75878,3.17177) matrix(1,0,0,1,-47.2651,-8.02898)"><ellipse cx="647.751" cy="589.699" rx="85.184" ry="88.176" style="fill:#daa284"/></g><g><path d="M860.788,595.246C859.292,588.706 858.5,581.886 858.5,574.876C858.5,526.211 896.67,486.701 943.684,486.701C990.699,486.701 1028.87,526.211 1028.87,574.876C1028.87,576.705 1028.82,578.522 1028.71,580.323C1023.79,571.271 1016.87,563.178 1008.43,556.467L887.064,556.467C874.209,566.687 864.872,580.109 860.788,595.246Z" transform="matrix(1,0,0,1,-2.75878,3.17177) matrix(1,0,0,1,-343.198,6.79365)" style="fill:#8d6602"/></g></g><g id="Torso"><path d="M517.775,829.346C517.775,786.264 566.052,751.288 625.514,751.288C684.977,751.288 733.254,786.265 733.254,829.346L733.254,1064.95C733.254,1108.03 684.977,1143.01 625.514,1143.01C566.051,1143.01 517.775,1108.03 517.775,1064.95L517.775,829.346Z" transform="matrix(0.727509,0,0,0.891966,142.829,12.7068)" style="fill:#930df2"/></g><g transform="matrix(4.73929,0,0,4.73929,-1900.83,-5582.76)"><g id="Arm-1"><path id="arm1_t" d="M494.584,1354.68C493.691,1353.09 493.831,1351.02 495.089,1349.51L513.049,1327.94C514.672,1325.99 517.546,1325.71 519.462,1327.3C521.379,1328.9 521.616,1331.78 519.993,1333.73L503.542,1353.48L507.489,1380.29C507.864,1382.84 506.165,1385.2 503.698,1385.56C501.23,1385.92 498.923,1384.15 498.548,1381.61L494.584,1354.68ZM550.158,1352.46L533.706,1332.7C532.083,1330.76 532.321,1327.88 534.237,1326.28C536.153,1324.68 539.027,1324.97 540.651,1326.92L558.61,1348.48C559.868,1349.99 560.009,1352.06 559.115,1353.66L555.151,1380.59C554.777,1383.13 552.469,1384.9 550.002,1384.54C547.534,1384.17 545.835,1381.81 546.21,1379.27L546.511,1377.22L550.158,1352.46Z" style="fill:#930df2"/></g></g><g id="Leg-1" transform="matrix(1,0,0,1,-18.1689,-2.33355)"><g id="leg1_t"><path d="M519.515,1005.69C519.515,987.336 534.824,972.437 553.68,972.437C572.537,972.437 587.846,987.336 587.846,1005.69L587.846,1208.69C587.846,1227.05 572.537,1241.94 553.68,1241.94C534.824,1241.94 519.515,1227.05 519.515,1208.69L519.515,1005.69Z" transform="matrix(0.999988,-0.0048479,0.00357682,0.737799,14.4829,239.875)" style="fill:#304e80"/></g><g id="leg1_b"><path d="M519.515,1005.69C519.515,987.336 534.824,972.437 553.68,972.437C572.537,972.437 587.846,987.336 587.846,1005.69L587.846,1208.69C587.846,1227.05 572.537,1241.94 553.68,1241.94C534.824,1241.94 519.515,1227.05 519.515,1208.69L519.515,1005.69Z" transform="matrix(-0.99992,0.0126229,0.00931323,0.737749,1202.76,382.733)" style="fill:#304e80"/></g><g id="leg1_b1"><path d="M519.515,1005.69C519.515,987.336 534.824,972.437 553.68,972.437C572.537,972.437 587.846,987.336 587.846,1005.69L587.846,1208.69C587.846,1227.05 572.537,1241.94 553.68,1241.94C534.824,1241.94 519.515,1227.05 519.515,1208.69L519.515,1005.69Z" transform="matrix(-0.99992,0.0126229,0.00931323,0.737749,1116.31,382.733)" style="fill:#304e80"/></g><g id="leg1_t1"><path d="M519.515,1005.69C519.515,987.336 534.824,972.437 553.68,972.437C572.537,972.437 587.846,987.336 587.846,1005.69L587.846,1208.69C587.846,1227.05 572.537,1241.94 553.68,1241.94C534.824,1241.94 519.515,1227.05 519.515,1208.69L519.515,1005.69Z" transform="matrix(-0.999936,-0.01135,-0.00837412,0.73776,1222.25,243.521)" style="fill:#304e80"/></g><g><path d="M543.774,1378.91L543.774,1381.09C544.707,1391 536.791,1395.7 527.235,1395.78C517.61,1395.86 509.958,1391 510.697,1381.09L510.697,1378.91L543.774,1378.91Z" transform="matrix(4.73929,0,0,4.73929,-1882.66,-5580.43)" style="fill:#304e7f"/></g></g></g></svg>