<?xml version="1.0" encoding="UTF-8" standalone="no"?>
<!DOCTYPE svg PUBLIC "-//W3C//DTD SVG 1.1//EN" "http://www.w3.org/Graphics/SVG/1.1/DTD/svg11.dtd">
<svg width="100%" height="100%" viewBox="0 0 1418 1418" version="1.1" xmlns="http://www.w3.org/2000/svg" xmlns:xlink="http://www.w3.org/1999/xlink" xml:space="preserve" xmlns:serif="http://www.serif.com/" style="fill-rule:evenodd;clip-rule:evenodd;stroke-linejoin:round;stroke-miterlimit:1.41421;">
    <g transform="matrix(1.32289,0,0,1.32289,-102.284,-391.044)">
        <g>
            <g id="Head">
                <g transform="matrix(0.733518,0,0,1.29705,141.348,-202.834)">
                    <rect x="601.927" y="668.886" width="48.139" height="22.695" style="fill:rgb(218,162,132);"/>
                </g>
                <g transform="matrix(1,0,0,1,-64.8791,0.3324)">
                    <ellipse cx="647.751" cy="589.699" rx="85.184" ry="88.176" style="fill:rgb(218,162,132);"/>
                </g>
            </g>
            <path id="Hair2_blond" d="M582.872,551.211L497.687,551.211C497.687,516.156 535.857,487.697 582.872,487.697C618.876,487.697 649.694,504.388 662.153,527.949C672.884,543.841 676.271,597.714 676.271,618.197C676.271,643.32 662.577,668.656 647.033,685.683C635.831,629.063 613.617,551.537 582.872,551.537L582.872,551.211Z" style="fill:rgb(244,180,25);"/>
            <g id="Leg-2" serif:id="Leg 2">
                <g id="leg2_t" transform="matrix(0.981674,-0.19057,0.140604,0.724286,-49.1427,380.981)">
                    <path d="M519.515,1005.69C519.515,987.336 534.824,972.437 553.68,972.437C572.537,972.437 587.846,987.336 587.846,1005.69L587.846,1208.69C587.846,1227.05 572.537,1241.94 553.68,1241.94C534.824,1241.94 519.515,1227.05 519.515,1208.69L519.515,1005.69Z" style="fill:rgb(48,78,128);"/>
                </g>
                <g id="leg2_b" transform="matrix(0.734094,-0.679048,0.501007,0.54162,-249.191,974.486)">
                    <path d="M519.515,1005.69C519.515,987.336 534.824,972.437 553.68,972.437C572.537,972.437 587.846,987.336 587.846,1005.69L587.846,1208.69C587.846,1227.05 572.537,1241.94 553.68,1241.94C534.824,1241.94 519.515,1227.05 519.515,1208.69L519.515,1005.69Z" style="fill:rgb(48,78,128);"/>
                </g>
            </g>
            <g id="Torso" transform="matrix(0.727509,0,0,0.891966,142.829,12.7068)">
                <path d="M517.775,829.346C517.775,786.264 566.052,751.288 625.514,751.288C684.977,751.288 733.254,786.265 733.254,829.346L733.254,1064.95C733.254,1108.03 684.977,1143.01 625.514,1143.01C566.051,1143.01 517.775,1108.03 517.775,1064.95L517.775,829.346Z" style="fill:rgb(109,154,49);"/>
            </g>
            <g id="Arm-in-walking-mode1" serif:id="Arm in walking mode1">
                <g id="Arm-1" serif:id="Arm 1" transform="matrix(0.983184,-0.18262,0.18262,0.983184,-123.956,123.16)">
                    <g id="arm1_t" transform="matrix(0.551056,-0.298744,0.312233,0.575939,-20.5624,317.151)">
                        <path d="M519.515,1005.69C519.515,987.336 534.824,972.437 553.68,972.437C572.537,972.437 587.846,987.336 587.846,1005.69L587.846,1208.69C587.846,1227.05 572.537,1241.94 553.68,1241.94C534.824,1241.94 519.515,1227.05 519.515,1208.69L519.515,1005.69Z" style="fill:rgb(139,191,64);"/>
                    </g>
                    <g id="arm1_b" transform="matrix(0.264266,0.568397,-0.602209,0.279986,1120.93,251.687)">
                        <path d="M519.515,1005.69C519.515,987.336 534.824,972.437 553.68,972.437C572.537,972.437 587.846,987.336 587.846,1005.69L587.846,1208.69C587.846,1227.05 572.537,1241.94 553.68,1241.94C534.824,1241.94 519.515,1227.05 519.515,1208.69L519.515,1005.69Z" style="fill:rgb(139,191,64);"/>
                    </g>
                </g>
                <path id="hirt" d="M610.815,782.364L581.375,745.99C573.811,736.644 575.129,723.02 584.317,715.584C593.504,708.148 607.104,709.698 614.668,719.043L645.512,757.152L610.815,782.364Z" style="fill:rgb(139,191,64);"/>
            </g>
            <g id="Leg-1" serif:id="Leg 1">
                <g id="leg1_b" transform="matrix(0.999264,-0.0383671,0.0283076,0.737264,-77.0626,403.138)">
                    <path d="M519.515,1005.69C519.515,987.336 534.824,972.437 553.68,972.437C572.537,972.437 587.846,987.336 587.846,1005.69L587.846,1208.69C587.846,1227.05 572.537,1241.94 553.68,1241.94C534.824,1241.94 519.515,1227.05 519.515,1208.69L519.515,1005.69Z" style="fill:rgb(48,78,128);"/>
                </g>
                <g id="leg1_t" transform="matrix(0.878979,0.47686,-0.351831,0.648518,440.459,84.2383)">
                    <path d="M519.515,1005.69C519.515,987.336 534.824,972.437 553.68,972.437C572.537,972.437 587.846,987.336 587.846,1005.69L587.846,1208.69C587.846,1227.05 572.537,1241.94 553.68,1241.94C534.824,1241.94 519.515,1227.05 519.515,1208.69L519.515,1005.69Z" style="fill:rgb(48,78,128);"/>
                </g>
            </g>
        </g>
    </g>
</svg>
