<svg xmlns="http://www.w3.org/2000/svg" xmlns:svg="http://www.w3.org/2000/svg" id="svg6565" width="64" height="64" version="1.1"><metadata id="metadata6570"/><g id="layer1" transform="translate(0,-988.36218)"><path style="fill:#8080e6;fill-opacity:1;stroke:none" id="path6575" d="M 5,59 60,59 50,44 c 0,0 -6.629565,6.920723 -17,7 -10.156193,0.07764 -18,-7 -18,-7 z" transform="translate(0,988.36218)"/><path style="fill:#8080e6;fill-opacity:1;stroke:none;stroke-width:.5;stroke-miterlimit:4;stroke-opacity:1;stroke-dasharray:none" id="path6577" d="M 45,19 C 45,24.522847 37.164983,29 27.5,29 17.835017,29 10,24.522847 10,19 10,13.477153 17.835017,9 27.5,9 37.164983,9 45,13.477153 45,19 z" transform="matrix(1.1777958,0,0,2.0511427,-0.24652736,974.97333)"/><path style="fill:#fff;fill-opacity:1;stroke:none" id="path7087" d="m 20,34 25,0 c 0,0 -8.227975,6.074545 -13,6 -4.47159,-0.06985 -12,-6 -12,-6 z" transform="translate(0,988.36218)"/></g></svg>